<?xml version="1.0" encoding="UTF-8"?>
<svg id="Layer_1" xmlns="http://www.w3.org/2000/svg" width="816.4814453" height="816.4814453" version="1.1" xmlns:xlink="http://www.w3.org/1999/xlink" viewBox="0 0 816.4814453 816.4814453">
  <!-- Generator: Adobe Illustrator 29.8.2, SVG Export Plug-In . SVG Version: 2.1.1 Build 3)  -->
  <defs>
    <style>
      .st0 {
        fill: url(#linear-gradient2);
      }

      .st1 {
        fill: url(#linear-gradient10);
      }

      .st3 {
        fill: url(#linear-gradient1);
      }

      .st4 {
        fill: url(#linear-gradient9);
      }

      .st5 {
        fill: url(#linear-gradient8);
      }

      .st6 {
        fill: url(#linear-gradient11);
      }

      .st9 {
        fill: url(#linear-gradient7);
      }

      .st10 {
        fill: url(#linear-gradient4);
      }

      .st11 {
        fill: url(#linear-gradient5);
      }

      .st12 {
        fill: url(#linear-gradient3);
      }

      .st13 {
        fill: url(#linear-gradient6);
      }

      .st14 {
        fill: url(#linear-gradient);
      }

      .st2 {
        fill: #fc2d2e;
      }

      .st7 {
        fill: url(#radial-gradient-red);
      }
    </style>
    <linearGradient id="linear-gradient" x1="457.7564457" y1="515.5872192" x2="707.7393188" y2="515.5872192" gradientUnits="userSpaceOnUse">
      <stop offset="0" stop-color="#8aa3c1"/>
      <stop offset="1" stop-color="#365a81"/>
    </linearGradient>
    <linearGradient id="linear-gradient1" x1="410.4471074" y1="690.3309937" x2="410.4471074" y2="367.3319123" gradientUnits="userSpaceOnUse">
      <stop offset="0" stop-color="#ced8e1"/>
      <stop offset=".0704734" stop-color="#d3dce4"/>
      <stop offset=".401119" stop-color="#e9edf0"/>
      <stop offset=".7170529" stop-color="#f7f7f8"/>
      <stop offset="1" stop-color="#fcfbfb"/>
    </linearGradient>
    <linearGradient id="linear-gradient2" x1="408.2407227" y1="816.4814453" x2="408.2407227" y2="0" gradientUnits="userSpaceOnUse">
      <stop offset="0" stop-color="#032957"/>
      <stop offset=".4664804" stop-color="#062246"/>
      <stop offset=".6814578" stop-color="#021631"/>
      <stop offset=".8882682" stop-color="#000e23"/>
    </linearGradient>
    <linearGradient id="linear-gradient3" x1="379.7650146" y1="567.722229" x2="379.7650146" y2="736.7722168" gradientUnits="userSpaceOnUse">
      <stop offset="0" stop-color="#6082a7"/>
      <stop offset="1" stop-color="#2e537b"/>
    </linearGradient>
    <linearGradient id="linear-gradient4" x1="400.5533752" y1="669.8192139" x2="400.5533752" y2="452.166687" gradientUnits="userSpaceOnUse">
      <stop offset="0" stop-color="#ccd5e0"/>
      <stop offset="1" stop-color="#e4eaee"/>
    </linearGradient>
    <linearGradient id="linear-gradient5" x1="328.1019287" y1="487.8572388" x2="328.1019287" y2="658.5476074" gradientUnits="userSpaceOnUse">
      <stop offset="0" stop-color="#89a4be"/>
      <stop offset="1" stop-color="#45698e"/>
    </linearGradient>
    <linearGradient id="linear-gradient6" x1="457.846366" y1="651.9526367" x2="753.7728271" y2="651.9526367" gradientUnits="userSpaceOnUse">
      <stop offset="0" stop-color="#3d648a"/>
      <stop offset="1" stop-color="#0c2a4d"/>
    </linearGradient>
    <linearGradient id="linear-gradient7" x1="583.0982056" y1="816.4814453" x2="583.0982056" y2="613.8062744" gradientUnits="userSpaceOnUse">
      <stop offset="0" stop-color="#09274c"/>
      <stop offset="1" stop-color="#183b62"/>
    </linearGradient>
    <linearGradient id="linear-gradient8" x1="144.3337708" y1="800.1565552" x2="144.3337708" y2="580.833313" gradientUnits="userSpaceOnUse">
      <stop offset="0" stop-color="#c4d0db"/>
      <stop offset="1" stop-color="#e0e7ed"/>
    </linearGradient>
    <linearGradient id="linear-gradient9" x1="552.444397" y1="656.9231262" x2="781.2955933" y2="656.9231262" gradientUnits="userSpaceOnUse">
      <stop offset="0" stop-color="#3d6489"/>
      <stop offset=".3638611" stop-color="#25486c"/>
      <stop offset=".7534779" stop-color="#113054"/>
      <stop offset=".9944134" stop-color="#0a284c"/>
    </linearGradient>
    <linearGradient id="linear-gradient10" x1="184.223877" y1="816.4814453" x2="184.223877" y2="487.5194621" gradientUnits="userSpaceOnUse">
      <stop offset="0" stop-color="#bcc9d9"/>
      <stop offset=".1613879" stop-color="#cbd5e1"/>
      <stop offset=".4827905" stop-color="#e5eaef"/>
      <stop offset=".7722339" stop-color="#f5f6f8"/>
      <stop offset="1" stop-color="#fbfbfb"/>
    </linearGradient>
    <linearGradient id="linear-gradient11" x1="359.2617493" y1="816.4814453" x2="359.2617493" y2="612.2109375" gradientUnits="userSpaceOnUse">
      <stop offset="0" stop-color="#0e2e55"/>
      <stop offset="1" stop-color="#3f668d"/>
    </linearGradient>
    <radialGradient id="radial-gradient-background" cx="408.2407227" cy="408.2407227" r="408.2407227" gradientUnits="userSpaceOnUse">
      <stop offset="0" stop-color="#032957"/>
      <stop offset=".4664804" stop-color="#062246"/>
      <stop offset=".6814578" stop-color="#021631"/>
      <stop offset=".8882682" stop-color="#000e23"/>
    </radialGradient>
    <radialGradient id="radial-gradient-red" cx="204.12036135" cy="204.12036135" fx="204.12036135" fy="204.12036135" r="57.6666667" gradientUnits="userSpaceOnUse">
      <stop offset="0" stop-color="#fc2d2e" stop-opacity=".45"/>
      <stop offset="1" stop-color="#fc2d2e" stop-opacity="0"/>
    </radialGradient>
    <clipPath id="circle-clip">
      <circle cx="408.2407227" cy="408.2407227" r="408.2407227"/>
    </clipPath>
  </defs>
  <circle cx="408.2407227" cy="408.2407227" r="408.2407227" fill="url(#radial-gradient-background)"/>
  <g>
    <circle class="st7" cx="204.12036135" cy="204.12036135" r="57.6666667"/>
    <circle class="st2" cx="204.12036135" cy="204.12036135" r="28.5555556"/>
  </g>
  <g clip-path="url(#circle-clip)">
    <g transform="translate(-200, -400) scale(1.5, 1.5)">
    <path class="st14" d="M458.555542,419.611084c-1.111145,5.444458-1.333374,11.777771,1.111084,16s25.222229,43.333374,31.222229,54.222229c4.9161377,8.921936,4.0112305,16.0512085,1.4468384,21.8204346l107.9185181,110.3630981-47.8098145-87.1835327,155.2949219,127.8555298-243.6073608-292.1036377c-.7355957-.882019-1.6002197-1.5756836-2.5356445-2.0996094,3.9500732,15.5442505-2.0514526,46.27771-3.0407715,51.1254883Z"/>
    <path class="st3" d="M511.5,613.8062744c-.168335-1.5368042-.7857666-3.0169678-1.833374-4.3062744-2.888855-3.555542-7.888855-9.888916-10.777771-13.444458-2.888855-3.555542-9.333313-8.111084-12.333313-9.555542s-19.888916-10.555542-24.444458-13.111145c-4.555542-2.555542-5.666687-6.777771-2.333313-12.111084,3.333313-5.333313,26.888855-39.666687,30.666626-46,.6824341-1.144043,1.3259277-2.3521118,1.8912964-3.6240234,2.5643921-5.7692261,3.4692993-12.8984985-1.4468384-21.8204346-6-10.888855-28.777771-50-31.222229-54.222229s-2.222229-10.555542-1.111084-16c.9893188-4.8477783,6.9908447-35.5812378,3.0407715-51.1254883-3.6984863-2.0712891-8.5574341-1.354187-11.4371338,2.1566162l-140.8116455,171.6739502,30.944458,37.5654907,99.0413208-127.7149658-55.4074097,136.444397,76.888855-76.444397-74.1127319,124.0551758,6.7866211,8.2387695,62.7335205-44.145813-41.8444824,69.5043945,16.8965454,20.5117798c11.1283569-9.9669189,72.8850098-65.2733765,76.725769-68.6087646,2.6911011-2.3370361,3.7959595-5.2148438,3.5-7.9159546Z"/>
    <path class="st12" d="M412.5184937,672.9074097l1.8591919-3.0881958-9.2849121-11.2716064-115.0927734-90.8253784,46.8216553,89.4744873v.000061l43.993103,43.5625-30.5184937-54.5185547,119.2337646,90.5314941-38.2557983-46.4412231c-1.1052246.9898682-1.718689,1.5393677-1.718689,1.5393677,0,0,.6134644-.5494995,1.718689-1.5393677l-16.8965454-20.5117798-1.8591919,3.0881958Z"/>
    <path class="st10" d="M393.4886475,644.4606323l62.7335205-44.145813-41.8444824,69.5043945-9.2849121-11.2716064-11.604126-14.0869751ZM383.9259033,588.611084l55.4074097-136.444397-99.0413208,127.7149658,46.4100342,56.34021,74.1127319-124.0551758-76.888855,76.444397Z"/>
    <path class="st11" d="M405.0927734,658.5476074l-11.604126-14.0869751-6.7866211-8.2387695-46.4100342-56.34021-30.944458-37.5654907-42.2374878-51.2748413c-1.3428345-1.630188-3.0869141-2.6818848-4.9505005-3.184082.6394043,4.0362549,2.0637817,15.1474609.2848511,25.1983032-2.222229,12.555542-11.333313,40.555542-11.333313,40.555542,0,0,36.0740967,44.4074097,38.8148193,48.333374,2.2255249,3.1878662,2.5948486,7.0594482,1.465332,10.2664795l45.4304199,44.9858398v-.000061l-46.8216553-89.4744873,115.0927734,90.8253784Z"/>
    <path class="st13" d="M600.2542114,622.0168457l-107.9185181-110.3630981c-.5653687,1.2719116-1.2088623,2.4799805-1.8912964,3.6240234-3.777771,6.333313-27.333313,40.666687-30.666626,46-3.333374,5.333313-2.222229,9.555542,2.333313,12.111084,4.555542,2.555603,21.444458,11.666687,24.444458,13.111145s9.444458,6,12.333313,9.555542c2.888916,3.555542,7.888916,9.888916,10.777771,13.444458,1.0476074,1.2893066,1.6650391,2.7694702,1.833374,4.3062744l223.4221802,178.4452515c6.5936279-3.9859009,12.887146-8.4159546,18.850647-13.2385864l-153.5186157-156.9960938Z"/>
    <path class="st9" d="M511.5,613.8062744c.2959595,2.7011108-.8088989,5.5789185-3.5,7.9159546-3.8407593,3.3353882-65.5974121,58.6418457-76.725769,68.6087646l38.2557983,46.4412231,65.6601562,79.7092285h112.5783081c31.8927002,0,61.7161865-8.8527832,87.1536865-24.2299194l-223.4221802-178.4452515Z"/>
    <path class="st5" d="M250.222168,629.722229l-60.0740356,52.222229,46.0740356-101.111145-78.666626,88.111145-110.4411011,75.333252-8.6690674,10.7080688c15.6400146,18.9805298,35.3503418,34.4783936,57.7918091,45.1707764l97.5405884-71.7677002,56.444397-98.666626Z"/>
    <path class="st4" d="M552.444397,534.833313l47.8098145,87.1835327,153.5186157,156.9960938c10.2290039-8.2721558,19.4707031-17.7134399,27.5227661-28.1245117l-73.5562744-88.199585-155.2949219-127.8555298Z"/>
    <path class="st1" d="M293.444397,678.277771c-2.111084-2.222229-5.333313-3-8.666626-1.555542-3.333374,1.444458-59.888916,34.333313-59.888916,34.333313,0,0,63.2592773-93.2592773,65.4815063-96.7407227.4177246-.65448.7593994-1.3614502,1.020874-2.1038818l-1.3912354-1.3776245,1.3912354,1.3776245c1.1295166-3.2070312.7601929-7.0786133-1.465332-10.2664795-2.7407227-3.9259644-38.8148193-48.333374-38.8148193-48.333374,0,0,9.111084-28,11.333313-40.555542,1.7789307-10.0508423.3545532-21.1620483-.2848511-25.1983032-3.5524292-.9573364-7.5470581.1187744-10.0803833,3.2479248l-204.9647217,253.1725464,110.4411011-75.333252,78.666626-88.111145-46.0740356,101.111145,60.0740356-52.222229-56.444397,98.666626-97.5405884,71.7677002c21.9589233,10.4624023,46.5316162,16.3248901,72.475769,16.3248901h14.6203613l138-104.4259033s-25.777771-31.555542-27.888916-33.777771Z"/>
    <path class="st6" d="M535.1901855,816.4814453l-65.6601562-79.7092285-119.2337646-90.5314941,30.5184937,54.5185547-43.993103-43.5625-45.4304199-44.9858398c-.2614746.7424316-.6031494,1.4494019-1.020874,2.1038818-2.222229,3.4814453-65.4815063,96.7407227-65.4815063,96.7407227,0,0,56.555542-32.888855,59.888916-34.333313,3.333313-1.444458,6.555542-.666687,8.666626,1.555542,2.111145,2.222229,27.888916,33.777771,27.888916,33.777771l-138,104.4259033h351.8568726Z"/>
    </g>
  </g>
</svg>

